<svg xmlns="http://www.w3.org/2000/svg" viewBox="0 0 283.46 283.63"><defs><style>.a{fill:#1d1d1b;}.b{fill:none;stroke:#1d1d1b;stroke-miterlimit:10;stroke-width:20px;}</style></defs><path class="a" d="M274.1,282.24l-98-75.51c-3.67-3.17-9.37-1.57-9.37,3.28V278a5.66,5.66,0,0,1-9.37,4.28L34.73,180a5.67,5.67,0,0,1-.57-8l4.68-5.56a5.67,5.67,0,0,1,8-.57l90.53,75.59a5.66,5.66,0,0,0,9.37-4.28V169.24A5.66,5.66,0,0,1,156.1,165l98,76.51a5.66,5.66,0,0,0,9.36-4.28v-67.8a5.67,5.67,0,0,1,5.67-5.66h8.67a5.66,5.66,0,0,1,5.66,5.66V278A5.66,5.66,0,0,1,274.1,282.24Z"/><polyline class="b" points="10 283.46 10 10 273.46 10 273.46 141.73 10 141.73"/></svg>